<svg fill="none" height="96" viewBox="0 0 1307 96" width="1307" xmlns="http://www.w3.org/2000/svg"><path clip-rule="evenodd" d="m165.635 5.60381c1.461-.13723 2.534-1.43295 2.397-2.89407-.138-1.46113-1.433-2.534364-2.894-2.397137l-.107.009996c-1.461.137295-2.534 1.433071-2.397 2.894191s1.433 2.53429 2.894 2.39699zm-21.114 2.08638c1.46-.15184 2.52-1.45823 2.368-2.91791-.152-1.45969-1.458-2.5199-2.918-2.36806l-.106.01104c-1.459.15192-2.52 1.45837-2.368 2.91804.152 1.45968 1.459 2.51982 2.918 2.3679zm1017.909-5.28597c-1.46-.15183-2.77.90838-2.92 2.36806s.91 2.76608 2.37 2.91792l.1.011c1.46.15192 2.77-.90822 2.92-2.36789s-.91-2.76613-2.37-2.91805zm-1038.994 7.60438c1.457-.16957 2.502-1.48875 2.332-2.94648s-1.489-2.50199-2.946-2.33241l-.106.01224c-1.457.16967-2.502 1.48892-2.332 2.94664.17 1.45771 1.489 2.50191 2.947 2.33221zm1060.144-5.27889c-1.46-.16957-2.78.87469-2.95 2.33242-.17 1.45772.87 2.77691 2.33 2.94647l.11.0122c1.45.1697 2.77-.87449 2.94-2.33221.17-1.45771-.87-2.77697-2.33-2.94664zm-1081.157 7.87949c1.455-.1919 2.479-1.5269 2.287-2.98186-.191-1.45496-1.527-2.47887-2.981-2.28697l-.104.01366c-1.455.19202-2.4787 1.52715-2.2867 2.98207.192 1.455 1.5267 2.4788 2.9817 2.2867zm1102.247-5.26882c-1.46-.1919-2.79.83201-2.98 2.28696-.2 1.45496.83 2.78996 2.28 2.98186l.11.0136c1.45.1921 2.79-.8317 2.98-2.2867.19-1.45491-.83-2.79004-2.29-2.98206zm-1123.0809 8.22102c1.4508-.2214 2.4473-1.577 2.2259-3.0278-.2215-1.4507-1.5771-2.4473-3.0278-2.2258l-.1081.0165c-1.4507.2216-2.4471 1.5773-2.2255 3.0281.2217 1.4507 1.5774 2.4471 3.0281 2.2254zm1144.0209-5.2536c-1.45-.2215-2.81.7751-3.03 2.2258-.22 1.4508.78 2.8064 2.23 3.0278l.11.0164c1.45.2217 2.8-.7747 3.02-2.2254.23-1.4508-.77-2.8065-2.22-3.0281zm-1165.0431 8.7627c1.4434-.2649 2.3989-1.6498 2.134-3.0932-.2649-1.4435-1.6497-2.3989-3.0932-2.1341l-.1043.0192c-1.4434.2651-2.3986 1.6502-2.1334 3.0936.2651 1.4434 1.6501 2.3986 3.0936 2.1334zm1186.2231-5.2273c-1.44-.2648-2.83.6906-3.09 2.1341-.27 1.4434.69 2.8283 2.13 3.0932l.1.0189c1.45.2652 2.83-.69 3.1-2.1334.26-1.4434-.69-2.8285-2.14-3.0936zm-1206.8477 9.4927c1.4284-.3368 2.3132-1.7678 1.9764-3.1962-.3369-1.4284-1.7679-2.3132-3.1962-1.9764l-.1069.0252c-1.4283.3374-2.3126 1.7687-1.9753 3.1969.3374 1.4283 1.7687 2.3126 3.197 1.9753zm1227.7277-5.1726c-1.42-.3368-2.85.548-3.19 1.9764s.55 2.8594 1.97 3.1962l.11.0248c1.43.3374 2.86-.547 3.2-1.9752.33-1.4283-.55-2.8596-1.98-3.197zm-1247.8625 10.9531c1.379-.502 2.0899-2.0269 1.5879-3.406-.502-1.379-2.0269-2.0899-3.406-1.5879l-.1005.0367c-1.3785.5034-2.0879 2.029-1.5845 3.4075.5034 1.3786 2.0291 2.0879 3.4076 1.5845zm1268.6025-4.9939c-1.38-.502-2.91.209-3.41 1.588s.21 2.9039 1.59 3.4059l.1.0348c1.37.5035 2.9-.2059 3.4-1.5844.51-1.3785-.2-2.9041-1.58-3.4076zm-1283.09539 14.5086c.01635-1.4674-1.16002-2.6703-2.62748-2.6866-1.46747-.0164-2.6703356 1.16-2.68668153 2.6274-.00029898.0269-.00044847.0537-.00044847.0806 0 .0268.00014877.0535.00044656.0803.01631144 1.4675 1.21915344 2.6439 2.68661344 2.6276 1.46747-.0163 2.64386-1.2192 2.62755-2.6866l-.00012-.0213zm1301.08539-.059c-.02-1.4674-1.22-2.6438-2.69-2.6275s-2.64 1.2191-2.63 2.6866v.0213.0213c-.01 1.4675 1.16 2.6703 2.63 2.6867 1.47.0163 2.67-1.16 2.69-2.6275v-.0301-.0504zm-1286.6881 9.5816c-1.3785-.5034-2.9042.206-3.4076 1.5845s.206 2.9041 1.5845 3.4075l.1006.0367c1.379.502 2.9039-.2089 3.4059-1.5879s-.2089-2.9039-1.5879-3.406zm1268.7981 4.992c1.38-.5034 2.09-2.029 1.58-3.4075-.5-1.3785-2.03-2.0879-3.4-1.5845l-.1.0349c-1.38.502-2.09 2.0269-1.59 3.4059s2.03 2.09 3.41 1.5879zm-1248.6728.7985c-1.4283-.3373-2.8596.547-3.197 1.9753-.3373 1.4282.547 2.8595 1.9753 3.1969l.1069.0252c1.4283.3369 2.8593-.548 3.1962-1.9764.3368-1.4283-.548-2.8593-1.9764-3.1962zm1227.9428 5.1722c1.43-.3373 2.31-1.7686 1.98-3.1969-.34-1.4283-1.77-2.3126-3.2-1.9753l-.11.0248c-1.42.3369-2.31 1.7679-1.97 3.1963.34 1.4283 1.77 2.3132 3.19 1.9763zm-1207.3165-.9009c-1.4434-.2651-2.8285.6901-3.0936 2.1335s.69 2.8284 2.1335 3.0935l.1043.0192c1.4434.2649 2.8283-.6906 3.0931-2.134.2649-1.4435-.6905-2.8284-2.134-3.0932zm1186.4265 5.2271c1.45-.2652 2.4-1.6502 2.14-3.0936-.27-1.4434-1.65-2.3986-3.1-2.1335l-.1.019c-1.44.2648-2.4 1.6497-2.13 3.0932.26 1.4434 1.65 2.3989 3.09 2.134zm-1165.4083-1.7155c-1.4508-.2216-2.8065.7748-3.0281 2.2255s.7747 2.8064 2.2255 3.028l.108.0165c1.4508.2215 2.8064-.775 3.0278-2.2258.2215-1.4507-.7751-2.8063-2.2258-3.0278zm1144.2383 5.2536c1.45-.2217 2.45-1.5774 2.22-3.0281-.22-1.4507-1.57-2.4471-3.02-2.2255l-.11.0164c-1.45.2215-2.45 1.5771-2.23 3.0278.22 1.4508 1.58 2.4473 3.03 2.2259zm-1123.4-2.2986c-1.455-.192-2.7898.8318-2.9818 2.2867-.192 1.455.8318 2.7901 2.2868 2.9821l.103.0137c1.455.1919 2.79-.8321 2.982-2.287.192-1.455-.832-2.79-2.287-2.9819zm1102.45 5.2688c1.46-.192 2.48-1.5271 2.29-2.9821-.19-1.4549-1.53-2.4787-2.98-2.2867l-.11.0136c-1.45.1919-2.48 1.5269-2.28 2.9819.19 1.455 1.52 2.4789 2.98 2.287zm-1081.439-2.6668c-1.458-.1696-2.777.8745-2.947 2.3322-.17 1.4578.875 2.777 2.332 2.9467l.106.0122c1.457.1696 2.776-.8747 2.946-2.3324s-.875-2.7769-2.332-2.9465zm1060.349 5.2789c1.46-.1697 2.5-1.4889 2.33-2.9467-.17-1.4577-1.49-2.5018-2.94-2.3322l-.11.0122c-1.46.1696-2.5 1.4888-2.33 2.9465s1.49 2.502 2.95 2.3324zm-1039.265-2.9593c-1.459-.1519-2.766.9083-2.918 2.3679-.152 1.4597.909 2.7662 2.368 2.9181l.106.011c1.46.1519 2.766-.9084 2.918-2.368.152-1.4597-.908-2.7661-2.368-2.918zm1018.115 5.286c1.46-.1519 2.52-1.4584 2.37-2.9181-.15-1.4596-1.46-2.5198-2.92-2.3679l-.1.011c-1.46.1519-2.52 1.4583-2.37 2.918.15 1.4596 1.46 2.5199 2.92 2.368zm-997.002-3.1986c-1.461-.1373-2.757.9359-2.894 2.397-.137 1.4612.936 2.7569 2.397 2.8942l.106.01c1.462.1373 2.757-.936 2.895-2.3971.137-1.4611-.936-2.7569-2.398-2.8941zm975.842 5.2912c1.46-.1373 2.53-1.433 2.39-2.8941-.13-1.4612-1.43-2.5343-2.89-2.3971l-.11.01c-1.46.1372-2.53 1.433-2.39 2.8941.13 1.4611 1.43 2.5344 2.89 2.3971zm-954.717-3.3989c-1.462-.1248-2.749.9593-2.874 2.4215s.959 2.7489 2.422 2.8738l.106.009c1.462.1249 2.749-.9593 2.874-2.4215.124-1.4623-.96-2.7489-2.422-2.8737zm933.547 5.2953c1.46-.1249 2.54-1.4115 2.42-2.8738-.13-1.4622-1.41-2.5463-2.88-2.4214l-.1.009c-1.46.1248-2.55 1.4114-2.42 2.8737.12 1.4622 1.41 2.5464 2.87 2.4215zm-912.413-3.5702c-1.463-.1141-2.742.9794-2.856 2.4426-.114 1.4631.98 2.7417 2.443 2.8558l.106.0083c1.463.1141 2.742-.9796 2.856-2.4427s-.98-2.7417-2.443-2.8557zm891.233 5.2984c1.47-.1141 2.56-1.3927 2.45-2.8558-.12-1.4631-1.4-2.5567-2.86-2.4426l-.11.0083c-1.46.114-2.55 1.3926-2.44 2.8557.12 1.4631 1.39 2.5568 2.86 2.4427zm-870.085-3.7193c-1.464-.1046-2.735.9973-2.84 2.4611-.104 1.4638.997 2.7353 2.461 2.8399l.106.0075c1.464.1046 2.735-.9973 2.84-2.4611.104-1.4639-.998-2.7353-2.461-2.8399zm848.905 5.301c1.46-.1046 2.57-1.3761 2.46-2.8399-.1-1.4638-1.37-2.5657-2.84-2.4611l-.1.0076c-1.47.1045-2.57 1.3759-2.46 2.8398.1 1.4638 1.37 2.5657 2.83 2.4611zm-827.736-3.8513c-1.465-.0961-2.73 1.0132-2.826 2.4776s1.013 2.7294 2.478 2.8255l.105.0069c1.464.096 2.729-1.0133 2.825-2.4777s-1.013-2.7294-2.477-2.8255zm806.536 5.3031c1.47-.0961 2.57-1.3611 2.48-2.8255-.1-1.4644-1.36-2.5737-2.83-2.4776l-.1.0069c-1.47.096-2.58 1.361-2.48 2.8254s1.36 2.5737 2.83 2.4777zm-785.341-3.97c-1.464-.0883-2.724 1.0277-2.812 2.4925-.088 1.465 1.028 2.7241 2.493 2.8124l.104.0063c1.465.0882 2.724-1.0278 2.813-2.4927.088-1.4649-1.028-2.7239-2.493-2.8122zm764.121 5.3049c1.46-.0883 2.58-1.3474 2.49-2.8123s-1.35-2.5809-2.81-2.4926l-.11.0063c-1.46.0883-2.58 1.3473-2.49 2.8122s1.35 2.5809 2.81 2.4927zm-742.892-4.078c-1.465-.0812-2.719 1.0409-2.8 2.5062s1.041 2.719 2.506 2.8002l.105.0057c1.465.0811 2.719-1.041 2.8-2.5063s-1.041-2.7189-2.507-2.8001zm721.632 5.3064c1.47-.0812 2.59-1.3349 2.51-2.8002s-1.34-2.5874-2.8-2.5062l-.11.0057c-1.46.0812-2.58 1.3348-2.5 2.8001s1.33 2.5874 2.8 2.5063zm-700.436-4.1811c-1.465-.0745-2.714 1.0532-2.788 2.5189-.075 1.4656 1.053 2.7142 2.518 2.7887l.107.0055c1.466.0745 2.715-1.0533 2.789-2.5189.075-1.4657-1.053-2.7142-2.519-2.7888zm679.219 5.3077c1.465-.0746 2.593-1.3232 2.518-2.7888-.074-1.4657-1.323-2.5934-2.788-2.5189l-.107.0054c-1.466.0746-2.594 1.3231-2.519 2.7888.074 1.4656 1.323 2.5934 2.789 2.5189zm-658.08-4.2776c-1.466-.0684-2.71 1.0646-2.778 2.5305-.069 1.466 1.064 2.7098 2.53 2.7782l.106.0049c1.466.0684 2.71-1.0646 2.779-2.5306.068-1.4659-1.065-2.7097-2.531-2.7781zm636.919 5.3087c1.466-.0684 2.599-1.3122 2.53-2.7782-.068-1.4659-1.312-2.5989-2.778-2.5305l-.106.0049c-1.466.0684-2.599 1.3122-2.531 2.7781.069 1.466 1.313 2.599 2.778 2.5306zm-615.733-4.3629c-1.466-.0626-2.706 1.0753-2.768 2.5415-.063 1.4662 1.075 2.7056 2.541 2.7681l.106.0045c1.466.0626 2.705-1.0753 2.768-2.5416.063-1.4662-1.075-2.7055-2.542-2.768zm594.526 5.3096c1.466-.0625 2.604-1.3019 2.541-2.7681-.062-1.4662-1.302-2.6041-2.768-2.5415l-.105.0045c-1.467.0625-2.605 1.3018-2.542 2.768.063 1.4663 1.302 2.6042 2.768 2.5416zm-573.29-4.4437c-1.467-.057-2.702 1.0855-2.759 2.552-.057 1.4664 1.086 2.7015 2.552 2.7585l.105.0041c1.466.057 2.701-1.0855 2.758-2.552.057-1.4664-1.085-2.7014-2.552-2.7585zm552.034 5.3105c1.466-.057 2.609-1.2921 2.552-2.7585-.057-1.4665-1.292-2.609-2.759-2.552l-.104.0041c-1.467.0571-2.609 1.2921-2.552 2.7585.057 1.4665 1.292 2.609 2.758 2.552zm-530.787-4.522c-1.466-.0518-2.697 1.0951-2.749 2.5618-.052 1.4666 1.095 2.6976 2.562 2.7494l.106.0038c1.467.0517 2.698-1.0952 2.75-2.5619.052-1.4666-1.095-2.6975-2.562-2.7493zm509.52 5.3112c1.467-.0518 2.614-1.2828 2.562-2.7494-.052-1.4667-1.283-2.6136-2.749-2.5618l-.107.0038c-1.467.0518-2.614 1.2827-2.562 2.7493.052 1.4667 1.283 2.6136 2.749 2.5619zm-488.372-4.6004c-1.467-.0468-2.694 1.1043-2.74 2.5711-.047 1.4669 1.104 2.6939 2.571 2.7407l.106.0034c1.467.0468 2.694-1.1044 2.74-2.5712.047-1.4668-1.104-2.6938-2.571-2.7406zm467.206 5.3118c1.467-.0468 2.618-1.2738 2.571-2.7406-.046-1.4669-1.273-2.618-2.74-2.5712l-.106.0034c-1.467.0468-2.618 1.2738-2.571 2.7406.046 1.4668 1.273 2.618 2.74 2.5712zm-445.996-4.6699c-1.467-.042-2.69 1.1132-2.732 2.5801-.042 1.467 1.113 2.6902 2.58 2.7322l.105.0031c1.467.0419 2.69-1.1133 2.732-2.5802.042-1.467-1.113-2.6902-2.58-2.7322zm424.769 5.3123c1.467-.042 2.622-1.2652 2.58-2.7322-.042-1.4669-1.265-2.6221-2.732-2.5801l-.105.003c-1.467.042-2.622 1.2652-2.58 2.7322.042 1.4669 1.265 2.6221 2.732 2.5802zm-403.502-4.7374c-1.467-.0373-2.686 1.1217-2.724 2.5888-.037 1.4671 1.122 2.6866 2.589 2.724l.105.0026c1.467.0374 2.687-1.1217 2.724-2.5888s-1.122-2.6866-2.589-2.7239zm382.218 5.3128c1.467-.0374 2.626-1.2569 2.589-2.724-.038-1.4671-1.257-2.6261-2.724-2.5888l-.105.0027c-1.467.0373-2.626 1.2568-2.589 2.7239s1.257 2.6262 2.724 2.5888zm-361.037-4.8064c-1.467-.0329-2.683 1.1299-2.716 2.5971s1.13 2.6832 2.597 2.716l.106.0024c1.467.0328 2.683-1.13 2.716-2.5972s-1.13-2.6832-2.597-2.716zm339.84 5.3131c1.467-.0328 2.63-1.2488 2.597-2.716s-1.249-2.63-2.716-2.5971l-.106.0023c-1.467.0328-2.63 1.2488-2.597 2.716s1.249 2.63 2.716 2.5972zm-318.641-4.8705c-1.467-.0285-2.679 1.1379-2.708 2.6052-.028 1.4673 1.138 2.6798 2.605 2.7083l.106.002c1.467.0285 2.68-1.1379 2.708-2.6052.029-1.4673-1.138-2.6798-2.605-2.7083zm297.426 5.3135c1.467-.0285 2.633-1.241 2.605-2.7083-.029-1.4673-1.241-2.6337-2.709-2.6052l-.105.002c-1.467.0285-2.634 1.241-2.605 2.7083.028 1.4673 1.241 2.6337 2.708 2.6052zm-276.165-4.9324c-1.467-.0241-2.676 1.1458-2.7 2.6132-.025 1.4673 1.145 2.6764 2.613 2.7006l.105.0017c1.467.0242 2.676-1.1458 2.7-2.6131.024-1.4674-1.146-2.6765-2.613-2.7006zm254.888 5.3138c1.468-.0242 2.637-1.2333 2.613-2.7006-.024-1.4674-1.233-2.6373-2.7-2.6132l-.105.0018c-1.468.0241-2.637 1.2332-2.613 2.7006.024 1.4673 1.233 2.6373 2.7 2.6131zm-233.688-4.9949c-1.468-.02-2.673 1.1534-2.693 2.6208s1.153 2.6732 2.621 2.6932l.106.0015c1.467.0199 2.673-1.1535 2.693-2.6209s-1.154-2.6732-2.621-2.6931zm212.473 5.314c1.468-.02 2.641-1.2258 2.621-2.6932s-1.226-2.6408-2.693-2.6208l-.106.0015c-1.467.0199-2.641 1.2257-2.621 2.6931s1.226 2.6408 2.693 2.6209zm-191.269-5.0549c-1.468-.0159-2.67 1.1609-2.686 2.6284-.016 1.4674 1.161 2.6699 2.628 2.6858l.106.0011c1.467.0159 2.67-1.1608 2.686-2.6283s-1.161-2.67-2.629-2.6858zm170.051 5.3142c1.467-.0159 2.644-1.2184 2.628-2.6858-.016-1.4675-1.219-2.6443-2.686-2.6284l-.105.0012c-1.468.0158-2.645 1.2183-2.629 2.6858s1.219 2.6442 2.686 2.6283zm-148.788-5.1134c-1.467-.0118-2.666 1.1682-2.678 2.6357s1.168 2.6668 2.635 2.6786l.105.0009c1.468.0118 2.667-1.1683 2.679-2.6358s-1.168-2.6667-2.636-2.6786zm127.509 5.3143c1.468-.0118 2.648-1.2111 2.636-2.6786s-1.211-2.6475-2.678-2.6357l-.105.0008c-1.468.0119-2.648 1.2111-2.636 2.6786s1.211 2.6476 2.678 2.6358zm-106.316-5.1721c-1.467-.0079-2.663 1.1754-2.671 2.6429-.008 1.4676 1.175 2.6636 2.643 2.6715l.106.0005c1.467.0079 2.663-1.1754 2.671-2.643.008-1.4675-1.175-2.6635-2.643-2.6714zm85.109 5.3144c1.467-.0079 2.651-1.2039 2.643-2.6715-.008-1.4675-1.204-2.6508-2.672-2.6429l-.105.0005c-1.468.0079-2.651 1.2039-2.643 2.6714.007 1.4676 1.203 2.6509 2.671 2.643zm-63.891-5.2293c-1.468-.004-2.661 1.1825-2.665 2.6501-.003 1.4675 1.183 2.6604 2.651 2.6643l.105.0003c1.468.0039 2.661-1.1826 2.664-2.6502.004-1.4675-1.182-2.6604-2.65-2.6643zm42.659 5.3144c1.468-.0039 2.654-1.1968 2.65-2.6643-.004-1.4676-1.196-2.6541-2.664-2.6501l-.105.0002c-1.468.0039-2.654 1.1968-2.651 2.6643.004 1.4676 1.197 2.6541 2.665 2.6502zm-21.39-5.286c-1.467 0-2.657 1.1897-2.657 2.6572 0 1.4676 1.19 2.6573 2.657 2.6573h.053.054c1.467 0 2.657-1.1897 2.657-2.6573 0-1.4675-1.19-2.6572-2.657-2.6572h-.054z" fill="#a2d8fa" fill-rule="evenodd"/></svg>